<svg id="elTFDwKstz11" xmlns="http://www.w3.org/2000/svg" xmlns:xlink="http://www.w3.org/1999/xlink" viewBox="20 29 90 70" shape-rendering="geometricPrecision" text-rendering="geometricPrecision"><g id="elTFDwKstz12"><path id="elTFDwKstz13" d="M78.839410,56.659453C78.839410,56.659453,85.031925,69.026518,82.328843,81.673336C80.780714,88.905941,74.043651,93.248102,67.102136,95.835814C55.946834,99.985554,43.706153,99.985554,32.550850,95.835814C25.608353,93.247103,18.871289,88.904942,17.326110,81.672337C14.621062,69.025519,20.815543,56.658454,20.815543,56.658454C18.161608,49.043187,13.702014,34.078418,18.224516,30.897231C24.359037,26.592037,35.897757,41.531828,35.897757,41.531828C41.756073,37.589314,49.826002,38.414584,49.826002,38.414584C49.826002,38.414584,57.891999,37.589314,63.756212,41.531828C63.756212,41.531828,75.294932,26.592037,81.424539,30.897231C85.952939,34.081415,81.490396,49.047183,78.839410,56.659453Z" transform="matrix(1 0 0 1 16.37363206999999 -0.49580264999998)" fill="rgb(65,68,81)" stroke="none" stroke-width="1"/><path id="elTFDwKstz14" d="M93.586100,56.146427C93.586100,56.146427,99.886100,68.524427,97.136100,81.182427C95.561100,88.421427,88.707100,92.767427,81.645100,95.357427C70.296172,99.510836,57.843028,99.510836,46.494100,95.357427C39.431100,92.766427,32.577100,88.420427,31.005100,81.181427C28.253100,68.523427,34.555100,56.145427,34.555100,56.145427C31.855100,48.523427,27.318100,33.545427,31.919100,30.361427C38.160100,26.052427,49.899100,41.005427,49.899100,41.005427C55.859100,37.059427,64.069100,37.885427,64.069100,37.885427C64.069100,37.885427,72.275100,37.059427,78.241100,41.005427C78.241100,41.005427,89.980100,26.052427,96.216100,30.361427C100.823100,33.548427,96.283100,48.527427,93.586100,56.146427Z" transform="matrix(1 0 0 1 0.00117207000001 0.00011635000001)" fill="rgb(87,91,109)" stroke="none" stroke-width="1"/><path id="elTFDwKstz15" d="M89.022000,51.737000C87.176000,47.837000,82.234000,45.652000,80.685000,45.048000C80.572986,45.004836,80.487954,44.911282,80.455653,44.795667C80.423352,44.680052,80.447580,44.555972,80.521000,44.461000C81.893000,42.644000,87.577000,35.427000,91.713000,34.861000C91.994396,34.828218,92.268710,34.964200,92.413000,35.208000C93.104000,36.338000,94.413000,40.335000,89.723000,51.708000C89.666431,51.848269,89.532973,51.942422,89.381857,51.948673C89.230740,51.954925,89.089962,51.872117,89.022000,51.737000Z" transform="matrix(1 0 0 1 0 -0.00032036000000)" fill="rgb(65,68,81)" stroke="none" stroke-width="1"/><path id="elTFDwKstz16" d="M38.977000,51.737000C40.823000,47.837000,45.765000,45.652000,47.314000,45.048000C47.426014,45.004836,47.511046,44.911282,47.543347,44.795667C47.575648,44.680052,47.551420,44.555972,47.478000,44.461000C46.106000,42.644000,40.422000,35.427000,36.286000,34.861000C36.004604,34.828218,35.730290,34.964200,35.586000,35.208000C34.895000,36.338000,33.586000,40.335000,38.276000,51.708000C38.332569,51.848269,38.466027,51.942422,38.617143,51.948673C38.768260,51.954925,38.909038,51.872117,38.977000,51.737000Z" fill="rgb(65,68,81)" stroke="none" stroke-width="1"/><path id="elTFDwKstz17" d="M97.067000,81.154000C95.493000,88.391000,88.641000,92.739000,81.574000,95.331000C70.224399,99.480607,57.772601,99.480607,46.423000,95.331000C39.362000,92.739000,32.510000,88.391000,30.936000,81.154000L39.879000,78.831000C48.037134,76.713283,54.715300,70.865948,57.892000,63.059000L57.958000,62.888000C58.711435,61.039162,59.903380,59.401396,61.431000,58.116000C62.916735,56.867078,65.085265,56.867078,66.571000,58.116000C68.096846,59.401700,69.286770,61.039519,70.038000,62.888000L70.110000,63.059000C73.284984,70.867373,79.963814,76.715660,88.123000,78.832000Z" transform="matrix(1 0 0 1 0.00000871500001 -0.20018768000000)" fill="rgb(238,239,238)" stroke="none" stroke-width="1"/><g id="elTFDwKstz18"><path id="elTFDwKstz19" d="M105.872000,77.611000C105.846660,77.610973,105.821916,77.603306,105.801000,77.589000C94.801000,70.189000,78.113000,77.162000,77.946000,77.233000C77.903376,77.254719,77.852198,77.250857,77.813317,77.222988C77.774435,77.195118,77.754339,77.147893,77.761216,77.100551C77.768093,77.053210,77.800795,77.013655,77.846000,76.998000C78.015000,76.927000,94.823000,69.904000,105.946000,77.377000C105.991549,77.408739,106.011445,77.466223,105.995263,77.519329C105.979080,77.572435,105.930509,77.609055,105.875000,77.610000Z" fill="rgb(255,255,255)" stroke="none" stroke-width="1"/><path id="elTFDwKstz110" d="M105.322000,84.674000C105.282555,84.673454,105.245603,84.654608,105.222000,84.623000C97.117000,73.815000,79.852000,78.929000,79.679000,78.982000C79.613713,78.996770,79.548071,78.958745,79.528405,78.894763C79.508738,78.830781,79.541689,78.762450,79.604000,78.738000C79.779000,78.685000,97.212000,73.517000,105.427000,84.470000C105.453158,84.508348,105.456504,84.557853,105.435744,84.599372C105.414985,84.640892,105.373373,84.667918,105.327000,84.670000Z" fill="rgb(255,255,255)" stroke="none" stroke-width="1"/><path id="elTFDwKstz111" d="M102.937000,88.527000C102.897765,88.526542,102.860908,88.508113,102.837000,88.477000C94.727000,77.845000,77.550000,82.058000,77.377000,82.100000C77.309094,82.115401,77.241005,82.074987,77.222000,82.008000C77.204924,81.939839,77.245987,81.870656,77.314000,81.853000C77.489000,81.810000,94.827000,77.553000,103.039000,88.320000C103.065158,88.358348,103.068504,88.407853,103.047744,88.449372C103.026985,88.490892,102.985373,88.517918,102.939000,88.520000Z" fill="rgb(255,255,255)" stroke="none" stroke-width="1"/><path id="elTFDwKstz112" d="M22.128000,77.611000C22.072491,77.610055,22.023920,77.573435,22.007737,77.520329C21.991555,77.467223,22.011451,77.409739,22.057000,77.378000C33.177000,69.905000,49.987000,76.928000,50.157000,76.999000C50.188323,77.012228,50.213097,77.037375,50.225854,77.068892C50.238611,77.100410,50.238304,77.135709,50.225000,77.167000C50.195868,77.230605,50.122172,77.260434,50.057000,77.235000C49.889000,77.164000,33.205000,70.195000,22.202000,77.590000C22.180125,77.604542,22.154253,77.611885,22.128000,77.611000Z" fill="rgb(255,255,255)" stroke="none" stroke-width="1"/><path id="elTFDwKstz113" d="M22.678000,84.674000C22.631627,84.671918,22.590015,84.644892,22.569256,84.603372C22.548496,84.561853,22.551842,84.512348,22.578000,84.474000C30.790000,73.518000,48.224000,78.685000,48.400000,78.737000C48.446862,78.747602,48.483840,78.783554,48.495756,78.830099C48.507672,78.876645,48.492519,78.925943,48.456516,78.957759C48.420514,78.989575,48.369726,78.998550,48.325000,78.981000C48.152000,78.928000,30.888000,73.815000,22.782000,84.622000C22.757770,84.655117,22.719032,84.674486,22.678000,84.674000Z" fill="rgb(255,255,255)" stroke="none" stroke-width="1"/><path id="elTFDwKstz114" d="M25.063000,88.527000C25.016627,88.524918,24.975015,88.497892,24.954256,88.456372C24.933496,88.414853,24.936842,88.365348,24.963000,88.327000C33.176000,77.561000,50.514000,81.817000,50.688000,81.860000C50.750284,81.882182,50.785425,81.948151,50.769085,82.012216C50.752744,82.076281,50.690300,82.117359,50.625000,82.107000C50.452000,82.064000,33.275000,77.851000,25.166000,88.482000C25.140441,88.512079,25.102435,88.528683,25.063000,88.527000Z" fill="rgb(255,255,255)" stroke="none" stroke-width="1"/></g><path id="elTFDwKstz115" d="M63.577000,72.300000L63.577000,76.568000C63.577000,76.568000,54.777000,81.429000,55.938000,82.509000C57.099000,83.589000,64,77.359000,64,77.359000C64,77.648000,70.906000,83.589000,72.063000,82.509000C73.220000,81.429000,64.424000,76.568000,64.424000,76.568000L64.424000,72.300000Z" fill="rgb(65,68,81)" stroke="none" stroke-width="1"/><path id="elTFDwKstz116" d="M68.454000,71.058000C67.917000,72.153000,66.521000,73.245000,64,73.208000C61.482000,73.245000,60.086000,72.152000,59.549000,71.058000C59.325329,70.591101,59.358234,70.041865,59.636048,69.605010C59.913862,69.168155,60.397311,68.905438,60.915000,68.910000L67.088000,68.910000C67.605689,68.905438,68.089138,69.168155,68.366952,69.605010C68.644766,70.041865,68.677671,70.591101,68.454000,71.058000Z" fill="rgb(87,91,109)" stroke="none" stroke-width="1"/></g><line id="elTFDwKstz117" x1="-4.696347" y1="5.440315" x2="6.948283" y2="-5.710817" transform="matrix(1 0 0 1 48.61882114500000 57.41849684000000)" fill="none" stroke="rgb(237,237,241)" stroke-width="1.280000"/><line id="elTFDwKstz118" x1="-5.009089" y1="-5.796317" x2="7.410987" y2="5.384003" transform="matrix(0.93756515177870 0 0 1 48.61882114500000 57.50399684000000)" fill="none" stroke="rgb(230,102,102)" stroke-width="1.280000"/><line id="elTFDwKstz119" x1="-8.150287" y1="-5.555644" x2="4.052872" y2="5.183815" transform="matrix(1 0 0 1 79.38101005500000 57.50399684000000)" fill="none" stroke="rgb(228,231,237)" stroke-width="1.280000"/><line id="elTFDwKstz120" x1="3.161868" y1="-5.470144" x2="-8.150287" y2="5.469503" transform="matrix(1 0 0 1 79.38101005999999 57.41849684000000)" fill="none" stroke="rgb(89,228,139)" stroke-width="1.280000"/><path id="elTFDwKstz121" d="M81.574009,51.326986L83.433882,52.814247L83.868521,50.920789L81.574009,51.326986Z" fill="rgb(89,228,139)" stroke="rgb(89,228,139)" stroke-width="0.256000"/><path id="elTFDwKstz122" d="M56.119711,61.386372L54.231475,63.683255L57.111993,64.197783L56.119711,61.386372Z" transform="matrix(0.79570128696662 0 0 0.88902787717400 11.28102078188398 6.92638108710685)" fill="rgb(230,102,102)" stroke="rgb(230,102,102)" stroke-width="0.256000"/></svg>